<?xml version="1.0" encoding="UTF-8" standalone="no"?>
<!-- Created with Inkscape (http://www.inkscape.org/) -->
<!-- ClipArt by Arvin61r58 (http://openclipart.org/user-detail/Arvin61r58) -->

<svg
   xmlns:dc="http://purl.org/dc/elements/1.1/"
   xmlns:cc="http://creativecommons.org/ns#"
   xmlns:rdf="http://www.w3.org/1999/02/22-rdf-syntax-ns#"
   xmlns:svg="http://www.w3.org/2000/svg"
   xmlns="http://www.w3.org/2000/svg"
   version="1.1"
   id="svg2"
   viewBox="0 0 215.00001 160.00001"
   height="160"
   width="215">
  <title
     id="title4868">Oval Pattern</title>
  <defs
     id="defs4" />
  <metadata
     id="metadata7">
    <rdf:RDF>
      <cc:Work
         rdf:about="">
        <dc:format>image/svg+xml</dc:format>
        <dc:type
           rdf:resource="http://purl.org/dc/dcmitype/StillImage" />
        <dc:title>Oval Pattern</dc:title>
        <dc:description>A seamless pattern based on a pattern from Memphis Group (Memphis-Milano) a circa 1980's architecture and design company.</dc:description>
        <dc:creator>
          <cc:Agent>
            <dc:title>Arvin61r58</dc:title>
          </cc:Agent>
        </dc:creator>
        <dc:publisher>
          <cc:Agent>
            <dc:title>Openclipart.org</dc:title>
          </cc:Agent>
        </dc:publisher>
        <dc:identifier>https://openclipart.org/</dc:identifier>
        <dc:source>https://openclipart.org/user-detail/Arvin61r58</dc:source>
        <dc:subject>
          <rdf:Bag>
            <rdf:li>pattern</rdf:li>
            <rdf:li>texture</rdf:li>
            <rdf:li>oval</rdf:li>
            <rdf:li>ovals</rdf:li>
            <rdf:li></rdf:li>
          </rdf:Bag>
        </dc:subject>
        <cc:license
           rdf:resource="http://creativecommons.org/publicdomain/zero/1.0/" />
      </cc:Work>
      <cc:License
         rdf:about="http://creativecommons.org/publicdomain/zero/1.0/">
        <cc:permits
           rdf:resource="http://creativecommons.org/ns#Reproduction" />
        <cc:permits
           rdf:resource="http://creativecommons.org/ns#Distribution" />
        <cc:permits
           rdf:resource="http://creativecommons.org/ns#DerivativeWorks" />
      </cc:License>
    </rdf:RDF>
  </metadata>
  <g
     transform="translate(-264.54724,-446.1811)"
     id="layer1">
    <path
       id="path4160"
       d="m 273.43486,446.1811 c -5.938,0 -8.88762,3.01415 -8.88762,9.08202 0,4.67982 0.94821,5.90215 17.73201,22.8379 9.75316,9.84146 19.51304,18.76713 21.68859,19.83398 4.79149,2.34966 5.2743,2.37951 8.75402,0.55859 3.7615,-1.96839 4.59043,-3.48619 4.61276,-8.44922 0.0174,-3.84092 -1.94027,-6.21952 -19.79674,-24.0625 C 279.677,448.1345 277.30083,446.1811 273.43486,446.1811 Z m 17.06994,0 c 6.49838,6.22096 11.91411,10.99434 13.46304,11.7539 4.79149,2.34966 5.2743,2.37954 8.75402,0.5586 3.7615,-1.96839 4.59043,-3.4862 4.61276,-8.44922 0.006,-1.2463 -0.20843,-2.34664 -1.09425,-3.86328 l -25.73557,0 z m 47.6835,0 c -17.74784,17.64918 -19.57448,19.88 -19.55708,23.79296 0.0219,4.92247 0.81316,6.45149 4.38094,8.46289 1.38304,0.77972 2.99437,1.43419 3.58137,1.45508 3.79485,0.13514 11.51129,-6.06854 27.06951,-21.76757 5.34793,-5.39634 8.96989,-9.10343 11.59082,-11.94336 l -27.06556,0 z m 43.37523,0 c -5.938,0 -8.88761,3.01415 -8.88761,9.08202 0,4.67982 0.94818,5.90215 17.732,22.8379 9.75315,9.84146 19.51303,18.76713 21.68859,19.83398 4.79147,2.34966 5.2743,2.37951 8.75401,0.55859 3.76151,-1.96839 4.59043,-3.48619 4.61277,-8.44922 0.0173,-3.84092 -1.94028,-6.21952 -19.79675,-24.0625 C 387.80566,448.1345 385.42949,446.1811 381.56353,446.1811 Z m 17.06993,0 c 6.49838,6.22096 11.91411,10.99434 13.46305,11.7539 4.79147,2.34966 5.2743,2.37954 8.75401,0.5586 3.76151,-1.96839 4.59043,-3.4862 4.61277,-8.44922 0.006,-1.2463 -0.20844,-2.34664 -1.09426,-3.86328 l -25.73557,0 z m 47.68348,0 c -17.74783,17.64918 -19.57446,19.88 -19.55706,23.79296 0.0218,4.92247 0.81315,6.45149 4.38094,8.46289 1.38304,0.77972 2.99436,1.43419 3.58137,1.45508 3.79483,0.13514 11.5113,-6.06854 27.06949,-21.76757 5.34793,-5.39634 8.96989,-9.10343 11.59083,-11.94336 l -27.06557,0 z m -83.53645,20 c -4.10321,0 -6.13192,1.64509 -24.32306,19.73047 -18.02833,17.92352 -19.8437,20.12752 -19.82621,24.06251 0.0219,4.92243 0.81316,6.45148 4.38094,8.46289 1.38304,0.77971 2.99437,1.43417 3.58137,1.45505 3.79485,0.13515 11.51129,-6.06853 27.06951,-21.76755 16.52974,-16.6794 17.75557,-18.24376 17.75557,-22.64455 0,-6.15982 -2.91613,-9.29882 -8.63812,-9.29882 z m 108.12865,0 c -4.10322,0 -6.13191,1.64509 -24.32305,19.73047 -18.02834,17.92352 -19.84371,20.12752 -19.82621,24.06251 0.0218,4.92243 0.81315,6.45148 4.38094,8.46289 1.38304,0.77971 2.99436,1.43417 3.58137,1.45505 3.79483,0.13515 11.5113,-6.06853 27.06949,-21.76755 16.52975,-16.6794 17.75558,-18.24376 17.75558,-22.64455 0,-6.15982 -2.91613,-9.29882 -8.63812,-9.29882 z m -197.47428,20 c -5.938,0 -8.88762,3.01417 -8.88762,9.08203 0,4.67983 0.94821,5.90212 17.73201,22.83788 9.75316,9.84147 19.51304,18.76714 21.68859,19.83398 4.79149,2.34967 5.2743,2.37952 8.75402,0.55861 3.7615,-1.96839 4.59043,-3.48621 4.61276,-8.44923 0.0174,-3.84092 -1.94027,-6.21952 -19.79674,-24.06249 C 279.677,488.1345 277.30083,486.1811 273.43486,486.1811 Z m 108.12867,0 c -5.938,0 -8.88761,3.01417 -8.88761,9.08203 0,4.67983 0.94818,5.90212 17.732,22.83788 9.75315,9.84147 19.51303,18.76714 21.68859,19.83398 4.79147,2.34967 5.2743,2.37952 8.75401,0.55861 3.76151,-1.96839 4.59043,-3.48621 4.61277,-8.44923 0.0173,-3.84092 -1.94028,-6.21952 -19.79675,-24.06249 C 387.80566,488.1345 385.42949,486.1811 381.56353,486.1811 Z m -18.78304,20.00001 c -4.10321,0 -6.13192,1.64507 -24.32306,19.73046 -18.02833,17.92351 -19.8437,20.12752 -19.82621,24.0625 0.0219,4.92245 0.81316,6.45149 4.38094,8.46289 1.38304,0.77972 2.99437,1.43418 3.58137,1.45507 3.79485,0.13514 11.51129,-6.06854 27.06951,-21.76758 16.52974,-16.67939 17.75557,-18.24373 17.75557,-22.64452 0,-6.15983 -2.91613,-9.29882 -8.63812,-9.29882 z m 108.12865,0 c -4.10322,0 -6.13191,1.64507 -24.32305,19.73046 -18.02834,17.92351 -19.84371,20.12752 -19.82621,24.0625 0.0218,4.92245 0.81315,6.45149 4.38094,8.46289 1.38304,0.77972 2.99436,1.43418 3.58137,1.45507 3.79483,0.13514 11.5113,-6.06854 27.06949,-21.76758 16.52975,-16.67939 17.75558,-18.24373 17.75558,-22.64452 0,-6.15983 -2.91613,-9.29882 -8.63812,-9.29882 z m -197.47428,19.99998 c -5.938,0 -8.88762,3.01419 -8.88762,9.08204 0,4.67983 0.94821,5.90212 17.73201,22.83788 9.75316,9.84147 19.51304,18.76714 21.68859,19.83399 4.79149,2.34966 5.2743,2.37952 8.75402,0.5586 3.7615,-1.96839 4.59043,-3.4862 4.61276,-8.44922 0.0174,-3.84093 -1.94027,-6.21953 -19.79674,-24.0625 C 279.677,528.1345 277.30083,526.18109 273.43486,526.18109 Z m 108.12867,0 c -5.938,0 -8.88761,3.01419 -8.88761,9.08204 0,4.67983 0.94818,5.90212 17.732,22.83788 9.75315,9.84147 19.51303,18.76714 21.68859,19.83399 4.79147,2.34966 5.2743,2.37952 8.75401,0.5586 3.76151,-1.96839 4.59043,-3.4862 4.61277,-8.44922 0.0173,-3.84093 -1.94028,-6.21953 -19.79675,-24.0625 -17.86088,-17.84738 -20.23705,-19.80079 -24.10301,-19.80079 z m -18.78304,20 c -4.10321,0 -6.13192,1.6451 -24.32306,19.73048 -18.02833,17.92352 -19.8437,20.12753 -19.82621,24.0625 0.0219,4.92245 0.81316,6.45149 4.38094,8.46289 1.38304,0.77972 2.99437,1.43418 3.58137,1.45507 3.79485,0.13515 11.51129,-6.06853 27.06951,-21.76757 16.52974,-16.67939 17.75557,-18.24374 17.75557,-22.64453 0,-6.15983 -2.91613,-9.29884 -8.63812,-9.29884 z m 108.12865,0 c -4.10322,0 -6.13191,1.6451 -24.32305,19.73048 -18.02834,17.92352 -19.84371,20.12753 -19.82621,24.0625 0.0218,4.92245 0.81315,6.45149 4.38094,8.46289 1.38304,0.77972 2.99436,1.43418 3.58137,1.45507 3.79483,0.13515 11.5113,-6.06853 27.06949,-21.76757 16.52975,-16.67939 17.75558,-18.24374 17.75558,-22.64453 0,-6.15983 -2.91613,-9.29884 -8.63812,-9.29884 z M 273.43486,566.1811 c -5.938,0 -8.88762,3.01417 -8.88762,9.08203 0,4.67983 0.94821,5.90213 17.73201,22.83789 2.80918,2.83461 5.59665,5.5634 8.22555,8.08008 l 25.73557,0 c -1.84415,-3.15745 -6.64005,-8.1459 -18.70249,-20.19922 C 279.677,568.1345 277.30083,566.1811 273.43486,566.1811 Z m 108.12867,0 c -5.938,0 -8.88761,3.01417 -8.88761,9.08203 0,4.67983 0.94818,5.90213 17.732,22.83789 2.80918,2.83461 5.59665,5.5634 8.22554,8.08008 l 25.73557,0 c -1.84415,-3.15745 -6.64005,-8.1459 -18.70249,-20.19922 C 387.80566,568.1345 385.42949,566.1811 381.56353,566.1811 Z m -18.78304,20 c -4.10321,0 -6.13192,1.64509 -24.32306,19.73047 -0.10074,0.10016 -0.16938,0.17034 -0.26913,0.26953 l 27.06556,0 c 5.48001,-5.93794 6.16475,-7.72419 6.16475,-10.70117 0,-6.15983 -2.91613,-9.29883 -8.63812,-9.29883 z m 108.12865,0 c -4.10322,0 -6.13191,1.64509 -24.32305,19.73047 -0.10075,0.10016 -0.1694,0.17034 -0.26915,0.26953 l 27.06557,0 c 5.48003,-5.93794 6.16475,-7.72419 6.16475,-10.70117 0,-6.15983 -2.91613,-9.29883 -8.63812,-9.29883 z"
       style="fill:#000000" />
  </g>
</svg>
